# xmcd
#
# Track frame offsets:
#	150
#	23447
#	43930
#	67175
#	101760
#
# Disc length: 4440 seconds
#
# Revision: 1
# Processed by: cddbd v1.5PL3 Copyright (c) Steve Scherf et al.
# Submitted via: CDex 1.50Beta5
#
DISCID=3f115605
DTITLE=w-inds. - NEW PARADISE
DYEAR=2002
DGENRE=Pop
TTITLE0=NEW PARADISE
TTITLE1=Best of My Love
TTITLE2=NEW PARADISE 〜CANDY Future Remix〜
TTITLE3=NEW PARADISE (Instrumental)
TTITLE4=1
EXTD=
EXTT0=
EXTT1=
EXTT2=
EXTT3=
EXTT4=
PLAYORDER=
